<?xml version="1.0" standalone="no"?>
<svg viewBox="0 0 200 200" xmlns="http://www.w3.org/2000/svg">
  <path fill="#93A094" d="M39.7,-69C53.3,-61,67.5,-54,71.1,-42.7C74.8,-31.4,68.1,-15.7,68.8,0.4C69.6,16.6,77.9,33.1,74.8,45.6C71.8,58.1,57.5,66.5,43.2,68.9C28.8,71.4,14.4,67.9,-1,69.6C-16.4,71.4,-32.9,78.4,-42.5,73.2C-52.1,68,-54.8,50.6,-57.7,36.4C-60.5,22.2,-63.5,11.1,-67.6,-2.4C-71.8,-15.9,-77.2,-31.8,-71.5,-41C-65.7,-50.2,-48.8,-52.7,-35,-60.6C-21.3,-68.5,-10.6,-81.7,1.2,-83.8C13.1,-85.9,26.1,-76.9,39.7,-69Z" transform="translate(100 100)" />
</svg>
