<svg xmlns="http://www.w3.org/2000/svg" width="400" height="121" viewBox="0 0 400 121.348"><g fill="none" class="nc-icon-wrapper"><path d="M366.742 58.876h-13.933c-8.989 0-13.933 6.742-13.933 18.427v41.798H311.91V58.876h-11.236c-8.989 0-13.932 6.742-13.932 18.427v41.798h-26.967V36.404h26.967V48.99c4.494-9.888 10.337-12.585 19.325-12.585h32.81V48.99c4.494-9.888 10.336-12.585 19.325-12.585h8.989zM253.483 84.045h-55.73c1.348 9.438 7.19 14.382 16.629 14.382 7.191 0 12.135-3.146 13.933-8.09l23.82 6.742C246.292 111.46 231.91 120 214.382 120c-29.213 0-42.697-22.921-42.697-42.697 0-19.325 11.686-42.247 40.9-42.247 31.01 0 41.348 23.371 41.348 40.9 0 4.044 0 6.291-.45 8.089zm-25.618-15.73c-.45-7.191-5.843-13.484-14.831-13.484-8.54 0-13.483 3.596-15.281 13.484zM124.944 119.1h23.37l29.664-82.247H151.01l-14.382 48.09-14.382-48.54H95.281zm-109.663 0h26.517V58.876h25.618v60.225h26.517V36.404H41.798v-4.943c0-5.394 4.045-8.99 9.887-8.99h15.73V0H47.64C28.315 0 15.28 12.135 15.28 29.663v6.741H0v22.472h15.28z" style="text-align:center;text-decoration-line:none;text-decoration-style:solid;text-decoration-color:#1dbf73" id="1668440375776-9957365_path2" color="#1dbf73" text-decoration="none" fill="#f7f7f7" stroke-width="4.494"></path><path d="M383.37 121.348c8.99 0 16.63-7.64 16.63-16.629s-7.64-16.63-16.63-16.63c-8.988 0-16.628 7.641-16.628 16.63 0 8.989 7.64 16.63 16.629 16.63z" style="text-align:center;text-decoration-line:none;text-decoration-style:solid;text-decoration-color:#1dbf73" id="1668440375776-9957365_path5" color="#1dbf73" text-decoration="none" fill="#1dbf73" stroke-width="4.494"></path></g></svg>